<mxfile host="app.diagrams.net" agent="Mozilla/5.0 (Windows NT 10.0; Win64; x64) AppleWebKit/537.36 (KHTML, like Gecko) Chrome/128.0.0.0 Safari/537.36 OPR/114.0.0.0" version="25.0.1">
  <diagram name="Page-1" id="_XaK2hE0QZCgml8iWN2g">
    <mxGraphModel dx="2220" dy="1924" grid="0" gridSize="10" guides="1" tooltips="1" connect="1" arrows="1" fold="1" page="1" pageScale="1" pageWidth="827" pageHeight="1169" math="0" shadow="0">
      <root>
        <mxCell id="0" />
        <mxCell id="1" parent="0" />
        <mxCell id="ZSj5ty7bktF3lgNFsP_j-1" value="" style="edgeStyle=orthogonalEdgeStyle;rounded=0;orthogonalLoop=1;jettySize=auto;html=1;" edge="1" parent="1" source="ZSj5ty7bktF3lgNFsP_j-2" target="ZSj5ty7bktF3lgNFsP_j-18">
          <mxGeometry relative="1" as="geometry" />
        </mxCell>
        <mxCell id="ZSj5ty7bktF3lgNFsP_j-2" value="Start" style="ellipse;whiteSpace=wrap;html=1;" vertex="1" parent="1">
          <mxGeometry x="-40" y="-150" width="100" height="60" as="geometry" />
        </mxCell>
        <mxCell id="ZSj5ty7bktF3lgNFsP_j-3" value="" style="edgeStyle=orthogonalEdgeStyle;rounded=0;orthogonalLoop=1;jettySize=auto;html=1;" edge="1" parent="1" source="ZSj5ty7bktF3lgNFsP_j-4" target="ZSj5ty7bktF3lgNFsP_j-9">
          <mxGeometry relative="1" as="geometry" />
        </mxCell>
        <mxCell id="ZSj5ty7bktF3lgNFsP_j-4" value="i = 0&lt;br&gt;j = 0" style="rounded=0;whiteSpace=wrap;html=1;" vertex="1" parent="1">
          <mxGeometry x="-68" y="202" width="156" height="40" as="geometry" />
        </mxCell>
        <mxCell id="ZSj5ty7bktF3lgNFsP_j-5" value="" style="edgeStyle=orthogonalEdgeStyle;rounded=0;orthogonalLoop=1;jettySize=auto;html=1;" edge="1" parent="1" source="ZSj5ty7bktF3lgNFsP_j-9" target="ZSj5ty7bktF3lgNFsP_j-14">
          <mxGeometry relative="1" as="geometry" />
        </mxCell>
        <mxCell id="ZSj5ty7bktF3lgNFsP_j-6" value="true" style="edgeLabel;html=1;align=center;verticalAlign=middle;resizable=0;points=[];" vertex="1" connectable="0" parent="ZSj5ty7bktF3lgNFsP_j-5">
          <mxGeometry x="-0.15" y="-1" relative="1" as="geometry">
            <mxPoint as="offset" />
          </mxGeometry>
        </mxCell>
        <mxCell id="ZSj5ty7bktF3lgNFsP_j-7" style="edgeStyle=orthogonalEdgeStyle;rounded=0;orthogonalLoop=1;jettySize=auto;html=1;exitX=0;exitY=0.5;exitDx=0;exitDy=0;entryX=0;entryY=0.5;entryDx=0;entryDy=0;" edge="1" parent="1" source="ZSj5ty7bktF3lgNFsP_j-9" target="ZSj5ty7bktF3lgNFsP_j-28">
          <mxGeometry relative="1" as="geometry">
            <Array as="points">
              <mxPoint x="-296" y="313" />
              <mxPoint x="-296" y="783" />
            </Array>
          </mxGeometry>
        </mxCell>
        <mxCell id="ZSj5ty7bktF3lgNFsP_j-8" value="false" style="edgeLabel;html=1;align=center;verticalAlign=middle;resizable=0;points=[];" vertex="1" connectable="0" parent="ZSj5ty7bktF3lgNFsP_j-7">
          <mxGeometry x="-0.6961" y="-3" relative="1" as="geometry">
            <mxPoint as="offset" />
          </mxGeometry>
        </mxCell>
        <mxCell id="ZSj5ty7bktF3lgNFsP_j-9" value="i &amp;lt; array.length - 1" style="rhombus;whiteSpace=wrap;html=1;rounded=0;" vertex="1" parent="1">
          <mxGeometry x="-64.5" y="284" width="149" height="58" as="geometry" />
        </mxCell>
        <mxCell id="ZSj5ty7bktF3lgNFsP_j-10" value="" style="edgeStyle=orthogonalEdgeStyle;rounded=0;orthogonalLoop=1;jettySize=auto;html=1;" edge="1" parent="1" source="ZSj5ty7bktF3lgNFsP_j-14" target="ZSj5ty7bktF3lgNFsP_j-16">
          <mxGeometry relative="1" as="geometry" />
        </mxCell>
        <mxCell id="ZSj5ty7bktF3lgNFsP_j-11" value="false" style="edgeLabel;html=1;align=center;verticalAlign=middle;resizable=0;points=[];" vertex="1" connectable="0" parent="ZSj5ty7bktF3lgNFsP_j-10">
          <mxGeometry x="-0.1146" relative="1" as="geometry">
            <mxPoint as="offset" />
          </mxGeometry>
        </mxCell>
        <mxCell id="ZSj5ty7bktF3lgNFsP_j-12" value="" style="edgeStyle=orthogonalEdgeStyle;rounded=0;orthogonalLoop=1;jettySize=auto;html=1;" edge="1" parent="1" source="ZSj5ty7bktF3lgNFsP_j-14">
          <mxGeometry relative="1" as="geometry">
            <mxPoint x="10" y="541" as="targetPoint" />
          </mxGeometry>
        </mxCell>
        <mxCell id="ZSj5ty7bktF3lgNFsP_j-13" value="true" style="edgeLabel;html=1;align=center;verticalAlign=middle;resizable=0;points=[];" vertex="1" connectable="0" parent="ZSj5ty7bktF3lgNFsP_j-12">
          <mxGeometry x="-0.0641" y="1" relative="1" as="geometry">
            <mxPoint as="offset" />
          </mxGeometry>
        </mxCell>
        <mxCell id="ZSj5ty7bktF3lgNFsP_j-14" value="j &amp;lt; array.length - 1" style="rhombus;whiteSpace=wrap;html=1;rounded=0;" vertex="1" parent="1">
          <mxGeometry x="-86.25" y="404" width="192.5" height="58" as="geometry" />
        </mxCell>
        <mxCell id="ZSj5ty7bktF3lgNFsP_j-15" style="edgeStyle=orthogonalEdgeStyle;rounded=0;orthogonalLoop=1;jettySize=auto;html=1;exitX=0.5;exitY=0;exitDx=0;exitDy=0;entryX=1;entryY=0.5;entryDx=0;entryDy=0;" edge="1" parent="1" source="ZSj5ty7bktF3lgNFsP_j-16" target="ZSj5ty7bktF3lgNFsP_j-9">
          <mxGeometry relative="1" as="geometry" />
        </mxCell>
        <mxCell id="ZSj5ty7bktF3lgNFsP_j-16" value="i = i + 1" style="whiteSpace=wrap;html=1;rounded=0;" vertex="1" parent="1">
          <mxGeometry x="179" y="404" width="120" height="60" as="geometry" />
        </mxCell>
        <mxCell id="ZSj5ty7bktF3lgNFsP_j-31" value="" style="edgeStyle=orthogonalEdgeStyle;rounded=0;orthogonalLoop=1;jettySize=auto;html=1;" edge="1" parent="1" source="ZSj5ty7bktF3lgNFsP_j-18" target="ZSj5ty7bktF3lgNFsP_j-30">
          <mxGeometry relative="1" as="geometry" />
        </mxCell>
        <mxCell id="ZSj5ty7bktF3lgNFsP_j-18" value="string" style="shape=parallelogram;perimeter=parallelogramPerimeter;whiteSpace=wrap;html=1;fixedSize=1;" vertex="1" parent="1">
          <mxGeometry x="-50" y="-79" width="120" height="60" as="geometry" />
        </mxCell>
        <mxCell id="ZSj5ty7bktF3lgNFsP_j-19" value="" style="edgeStyle=orthogonalEdgeStyle;rounded=0;orthogonalLoop=1;jettySize=auto;html=1;" edge="1" parent="1" source="ZSj5ty7bktF3lgNFsP_j-22" target="ZSj5ty7bktF3lgNFsP_j-24">
          <mxGeometry relative="1" as="geometry" />
        </mxCell>
        <mxCell id="ZSj5ty7bktF3lgNFsP_j-20" value="true" style="edgeLabel;html=1;align=center;verticalAlign=middle;resizable=0;points=[];" vertex="1" connectable="0" parent="ZSj5ty7bktF3lgNFsP_j-19">
          <mxGeometry x="-0.215" y="-2" relative="1" as="geometry">
            <mxPoint as="offset" />
          </mxGeometry>
        </mxCell>
        <mxCell id="ZSj5ty7bktF3lgNFsP_j-21" value="" style="edgeStyle=orthogonalEdgeStyle;rounded=0;orthogonalLoop=1;jettySize=auto;html=1;" edge="1" parent="1" source="ZSj5ty7bktF3lgNFsP_j-22" target="ZSj5ty7bktF3lgNFsP_j-26">
          <mxGeometry relative="1" as="geometry" />
        </mxCell>
        <mxCell id="ZSj5ty7bktF3lgNFsP_j-22" value="array[i] &amp;gt; array[j+1]" style="rhombus;whiteSpace=wrap;html=1;rounded=0;" vertex="1" parent="1">
          <mxGeometry x="-84" y="541" width="192.5" height="58" as="geometry" />
        </mxCell>
        <mxCell id="ZSj5ty7bktF3lgNFsP_j-23" style="edgeStyle=orthogonalEdgeStyle;rounded=0;orthogonalLoop=1;jettySize=auto;html=1;exitX=0;exitY=0.5;exitDx=0;exitDy=0;" edge="1" parent="1" source="ZSj5ty7bktF3lgNFsP_j-24" target="ZSj5ty7bktF3lgNFsP_j-26">
          <mxGeometry relative="1" as="geometry" />
        </mxCell>
        <mxCell id="ZSj5ty7bktF3lgNFsP_j-24" value="temp = array[j]&lt;br&gt;array[j] = array[j+1]&lt;br&gt;array[j+1] = temp" style="whiteSpace=wrap;html=1;rounded=0;" vertex="1" parent="1">
          <mxGeometry x="-47.75" y="656" width="120" height="60" as="geometry" />
        </mxCell>
        <mxCell id="ZSj5ty7bktF3lgNFsP_j-25" style="edgeStyle=orthogonalEdgeStyle;rounded=0;orthogonalLoop=1;jettySize=auto;html=1;exitX=0.5;exitY=0;exitDx=0;exitDy=0;entryX=0;entryY=0.5;entryDx=0;entryDy=0;" edge="1" parent="1" source="ZSj5ty7bktF3lgNFsP_j-26" target="ZSj5ty7bktF3lgNFsP_j-14">
          <mxGeometry relative="1" as="geometry" />
        </mxCell>
        <mxCell id="ZSj5ty7bktF3lgNFsP_j-26" value="j = j + 1" style="whiteSpace=wrap;html=1;rounded=0;" vertex="1" parent="1">
          <mxGeometry x="-264" y="540" width="120" height="60" as="geometry" />
        </mxCell>
        <mxCell id="ZSj5ty7bktF3lgNFsP_j-27" value="" style="edgeStyle=orthogonalEdgeStyle;rounded=0;orthogonalLoop=1;jettySize=auto;html=1;" edge="1" parent="1" source="ZSj5ty7bktF3lgNFsP_j-28" target="ZSj5ty7bktF3lgNFsP_j-29">
          <mxGeometry relative="1" as="geometry" />
        </mxCell>
        <mxCell id="ZSj5ty7bktF3lgNFsP_j-28" value="print array.join(&quot;&quot;)" style="shape=parallelogram;perimeter=parallelogramPerimeter;whiteSpace=wrap;html=1;fixedSize=1;" vertex="1" parent="1">
          <mxGeometry x="-50" y="753" width="120" height="60" as="geometry" />
        </mxCell>
        <mxCell id="ZSj5ty7bktF3lgNFsP_j-29" value="End" style="ellipse;whiteSpace=wrap;html=1;" vertex="1" parent="1">
          <mxGeometry x="-30" y="858" width="80" height="54" as="geometry" />
        </mxCell>
        <mxCell id="ZSj5ty7bktF3lgNFsP_j-32" value="" style="edgeStyle=orthogonalEdgeStyle;rounded=0;orthogonalLoop=1;jettySize=auto;html=1;" edge="1" parent="1" source="ZSj5ty7bktF3lgNFsP_j-30" target="ZSj5ty7bktF3lgNFsP_j-4">
          <mxGeometry relative="1" as="geometry" />
        </mxCell>
        <mxCell id="ZSj5ty7bktF3lgNFsP_j-30" value="array = string.split(&quot;&quot;)" style="whiteSpace=wrap;html=1;" vertex="1" parent="1">
          <mxGeometry x="-50" y="61" width="120" height="60" as="geometry" />
        </mxCell>
      </root>
    </mxGraphModel>
  </diagram>
</mxfile>
